<svg width="56" height="56" viewBox="0 0 56 56" fill="none" xmlns="http://www.w3.org/2000/svg">
<circle cx="28" cy="28" r="26.5" fill="white" stroke="#E22F2F" stroke-width="3"/>
<path d="M29.8435 28.7892L29.8439 28.7888C29.8242 28.8043 29.8044 28.8171 29.7848 28.8319L29.7439 28.8616C27.8487 30.2323 25.8615 27.8827 25.8615 27.8827L25.8627 27.8849C24.5822 26.2853 22.4478 24.5677 19.0605 24.1939C19.0605 24.1939 19.8538 30.2234 22.9049 31.8502C24.0975 32.486 25.1095 32.4093 25.8814 32.109C25.9724 32.0878 26.1126 32.027 26.3305 31.898C26.3652 31.8787 26.3991 31.8591 26.4324 31.8391C27.1483 31.4313 27.5291 31.3906 27.5543 31.3882C28.5652 31.2896 29.4221 31.7802 29.4221 31.7802L29.4207 31.7783C29.9815 32.1247 30.782 32.3847 31.9023 32.3002C35.34 32.0414 36.442 26.9018 36.442 26.9018C33.0936 27.0243 31.0507 27.9215 29.8435 28.7892" fill="#464648"/>
<path d="M24.6992 32.334C24.1625 32.334 23.5613 32.1999 22.9054 31.8502C20.5152 30.5759 19.5107 26.5995 19.1875 24.9366C21.383 25.9388 23.523 26.728 25.2753 27.2116C25.4888 27.4357 25.6843 27.6613 25.8632 27.8849L25.8619 27.8827C25.8619 27.8827 27.0529 29.2912 28.4703 29.2909C28.8837 29.2909 29.3164 29.1711 29.7443 28.8616L29.7852 28.8319C29.8048 28.8171 29.8246 28.8044 29.8444 28.7888L29.8439 28.7893C31.0512 27.9215 33.0941 27.0243 36.4424 26.9018C36.4424 26.9018 35.3405 32.0415 31.9028 32.3002C31.7587 32.3111 31.6198 32.3162 31.4859 32.3162C30.5804 32.3162 29.9097 32.0802 29.4211 31.7783L29.4225 31.7802C29.4225 31.7802 28.715 31.3752 27.8273 31.3752C27.7382 31.3752 27.647 31.3792 27.5547 31.3882C27.5295 31.3906 27.1488 31.4313 26.4328 31.8392C26.3995 31.8591 26.3656 31.8787 26.3309 31.898C26.1131 32.027 25.9729 32.0878 25.8819 32.109C25.5344 32.2442 25.1384 32.334 24.6992 32.334V32.334ZM33.8967 29.9692C33.498 30.6918 32.5266 31.2677 32.5266 31.2677L32.7516 32.0242C34.0705 31.5743 34.6328 30.5519 34.6328 30.5519L33.8967 29.9692ZM21.6989 29.2755L20.9746 29.6091C20.9746 29.6091 21.6514 31.1159 23.0762 31.757L23.4799 31.0921C23.4799 31.0921 22.5183 30.9022 21.6989 29.2755ZM34.9701 28.0749C31.2485 28.3612 28.8356 30.4878 28.8356 30.4878C28.8356 30.4878 29.3581 31.5333 31.0148 31.5333C31.1528 31.5333 31.2989 31.526 31.4531 31.5102C33.4571 31.3058 34.9701 28.0749 34.9701 28.0749V28.0749ZM20.6153 26.0885C20.6153 26.0885 21.3513 30.0003 23.8052 31.1037C24.3918 31.3674 24.8806 31.4678 25.2844 31.4678C26.5693 31.4679 26.9952 30.4517 26.9952 30.4517C26.9952 30.4517 24.4799 26.7906 20.6153 26.0885V26.0885ZM25.1395 27.2238L24.687 27.9255C24.687 27.9255 25.2391 28.4278 25.4845 28.6271L26.0135 28.1474C26.0135 28.1474 25.3763 27.3419 25.1395 27.2238ZM33.3012 27.4032C33.3012 27.4032 32.6674 27.5817 32.0425 27.7461L32.3528 28.4608C32.3528 28.4608 33.1532 28.2787 33.2059 28.2641L33.3012 27.4032Z" fill="url(#paint0_linear_991_841)"/>
<path d="M26.9951 30.4517C26.9951 30.4517 24.4799 26.7905 20.6152 26.0885C20.6152 26.0885 21.3512 30.0003 23.8052 31.1036C26.259 32.2068 26.9951 30.4517 26.9951 30.4517Z" fill="white"/>
<path d="M28.835 30.4878C28.835 30.4878 31.2478 28.3612 34.9695 28.0749C34.9695 28.0749 33.4564 31.3058 31.4525 31.5102C29.4483 31.7147 28.835 30.4878 28.835 30.4878Z" fill="white"/>
<path d="M28.6748 27.7277C25.586 28.073 13.9333 23.5033 9 18.2724C9 18.2724 16.2797 21.6259 19.2867 19.9916C20.7372 19.2033 23.4244 9.3086 23.4244 9.3086C23.4244 9.3086 24.2646 6.72206 26.0923 7.02455C27.074 7.18715 28.6761 10.5612 29.5513 11.3715C30.4266 12.1821 31.4611 11.0031 32.0975 10.8559C32.7341 10.7085 34.6589 15.7367 36.2503 19.9364C36.2503 19.9364 39.5529 21.9254 47.8525 18.5918C47.8525 18.5918 36.7128 26.8293 28.6748 27.7277" fill="#464648"/>
<path d="M28.3123 27.7461C27.5785 27.7461 26.5254 27.5566 25.275 27.2116C23.5226 26.728 21.3826 25.9388 19.1871 24.9366C15.3735 23.1954 11.395 20.8119 9 18.2724C9 18.2724 13.7066 20.4405 17.1142 20.4405C17.9445 20.4405 18.6976 20.3119 19.2867 19.9916C20.7372 19.2034 23.4244 9.30862 23.4244 9.30862C23.4244 9.30862 24.1746 6.99998 25.7984 6.99998C25.8935 6.99998 25.9912 7.00792 26.0923 7.02457C27.074 7.18717 28.6761 10.5612 29.5513 11.3716C29.7718 11.5757 30.0024 11.6537 30.2341 11.6537C30.9224 11.6537 31.6214 10.9661 32.0975 10.8559C32.1067 10.8537 32.1162 10.8526 32.1259 10.8526C32.7893 10.8526 34.6817 15.797 36.2503 19.9364C36.2503 19.9364 37.2281 20.5252 39.4562 20.5252C41.3234 20.5252 44.0684 20.1117 47.8525 18.5918C47.8525 18.5918 36.7128 26.8293 28.6748 27.7277C28.5648 27.74 28.4434 27.7461 28.3123 27.7461V27.7461ZM32.0376 11.1738C31.9272 11.1738 31.8411 11.2125 31.8411 11.2125C31.8411 11.2125 34.2949 18.1753 35.1538 20.0156C36.0127 21.856 38.4359 22.5922 38.4359 22.5922C39.3868 22.1627 41.4113 21.0432 41.4113 21.0432C40.8752 21.1614 40.3596 21.2111 39.8721 21.2111C37.6394 21.2111 36.0104 20.1671 35.8593 19.8776C35.6754 19.5248 32.5466 11.5653 32.3473 11.3199C32.2534 11.2043 32.1358 11.1738 32.0376 11.1738V11.1738ZM19.9401 22.5922L18.1049 21.4396L19.8092 21.744L19.0608 21.2266C19.0608 21.2266 20.5091 21.1961 21.2091 19.7962C21.9092 18.3963 24.6482 8.38326 25.3177 7.5617C25.3177 7.5617 25.3159 7.56139 25.3121 7.56139C25.253 7.56139 24.7356 7.61507 23.9796 9.4138C23.1095 11.4834 21.3918 18.2136 20.2657 19.7354C19.6811 20.5252 18.5143 20.7329 17.4122 20.7329C16.3913 20.7329 15.4263 20.5547 15.031 20.4962C15.031 20.4962 17.9378 22.0933 19.9401 22.5922ZM31.5366 11.2959C31.4269 11.2959 31.1574 11.4641 30.9515 11.6112C30.7368 11.7646 30.3612 11.8029 30.3612 11.8029C30.4905 11.8502 30.6206 11.869 30.7458 11.869C31.2304 11.869 31.6418 11.5882 31.6418 11.5882L31.5498 11.2969C31.5458 11.2962 31.5413 11.2959 31.5366 11.2959" fill="url(#paint1_linear_991_841)"/>
<path d="M19.9404 29.8594C19.9404 29.8594 22.2715 32.2474 23.8052 33.1634C25.3388 34.0796 26.564 32.3327 27.8531 32.3165C29.1423 32.3005 31.044 33.8342 31.9028 33.9568C32.7617 34.0796 35.461 31.0896 36.1359 29.6094C36.1359 29.6094 33.4698 38.4162 28.0382 42.1616C28.0382 42.1616 24.2345 41.1496 19.9404 29.8594" fill="#464648"/>
<path d="M28.0382 42.1616C28.0382 42.1616 24.2345 41.1496 19.9404 29.8594C19.9404 29.8594 22.2715 32.2474 23.8052 33.1634C24.1234 33.3536 24.4284 33.4291 24.7234 33.4291C25.8501 33.4291 26.8315 32.3293 27.8531 32.3165C27.8598 32.3164 27.8665 32.3164 27.8732 32.3164C29.162 32.3164 31.0484 33.8349 31.9028 33.9568C31.9201 33.9593 31.9379 33.9606 31.9566 33.9606C32.8689 33.9606 35.4744 31.06 36.1359 29.6094C36.1359 29.6094 33.4698 38.4162 28.0382 42.1616V42.1616ZM25.3181 39.5701C25.3181 39.5701 23.3381 37.0486 22.2102 33.558L23.302 34.3556L22.1795 32.7914C22.1795 32.7914 23.3758 33.3435 24.2345 33.6195C24.2345 33.6195 21.6887 32.1164 20.4618 30.6748C20.4618 30.6748 22.8834 37.0976 25.3181 39.5701V39.5701ZM33.2691 33.9162C33.4096 33.9162 33.503 33.9235 33.503 33.9235C32.7285 36.7289 30.6175 39.4649 30.6175 39.4649C33.4049 36.527 35.4139 31.1783 35.4139 31.1783C35.0462 31.7089 33.3799 33.4382 33.3799 33.4382C33.0606 33.7728 32.6767 33.9657 32.6767 33.9657C32.8902 33.9256 33.1099 33.9162 33.2691 33.9162" fill="url(#paint2_linear_991_841)"/>
<path d="M17.4609 28.2253C17.4609 28.2253 12.946 29.5465 9.81738 34.5768L16.4428 39.645C16.4428 39.645 13.9889 41.0963 13.1914 42.683L21.8412 47.0303L15.2567 42.3523C15.2567 42.3523 16.1405 40.7739 19.3046 39.3457L12.4965 34.2166C12.4965 34.2166 13.9388 31.3757 18.3489 29.7999L17.9151 28.0736C17.5331 28.1937 17.4609 28.2253 17.4609 28.2253" fill="#464648"/>
<path d="M21.8412 47.0303L13.1914 42.683C13.9889 41.0963 16.4428 39.645 16.4428 39.645L9.81738 34.5768C12.946 29.5465 17.4609 28.2253 17.4609 28.2253C17.4609 28.2253 17.5331 28.1937 17.9151 28.0736L18.3489 29.7999C13.9388 31.3757 12.4965 34.2166 12.4965 34.2166L19.3046 39.3457C16.1405 40.7739 15.2567 42.3523 15.2567 42.3523L21.8412 47.0303V47.0303ZM14.6229 29.8594C14.6229 29.8594 11.76 31.728 10.1855 34.509L16.7699 39.7029C16.7699 39.7029 14.7046 40.6026 13.4777 42.6271L16.2384 43.9972L14.0094 42.5453C14.0094 42.5453 14.8887 40.7868 17.6288 39.662L10.758 34.427C10.758 34.427 11.397 33.2054 12.3325 32.2237C12.9004 31.6281 14.6229 29.8594 14.6229 29.8594" fill="url(#paint3_linear_991_841)"/>
<path d="M37.8832 28.2253C37.8832 28.2253 42.3981 29.5465 45.5267 34.5768L38.9013 39.645C38.9013 39.645 41.3553 41.0963 42.1527 42.683L33.5029 47.0303L40.0873 42.3523C40.0873 42.3523 39.2036 40.7739 36.0395 39.3457L42.8476 34.2166C42.8476 34.2166 41.4054 31.3757 36.9952 29.7999L37.429 28.0736C37.811 28.1937 37.8832 28.2253 37.8832 28.2253Z" fill="#464648"/>
<path d="M33.5029 47.0303L40.0873 42.3523C40.0873 42.3523 39.2036 40.7739 36.0395 39.3457L42.8476 34.2166C42.8476 34.2166 41.4054 31.3757 36.9952 29.7999L37.429 28.0736C37.811 28.1937 37.8832 28.2253 37.8832 28.2253C37.8832 28.2253 42.3981 29.5465 45.5267 34.5768L38.9013 39.645C38.9013 39.645 41.3553 41.0963 42.1527 42.683L33.5029 47.0303V47.0303ZM40.6958 29.8594C40.6958 29.8594 42.4183 31.6281 42.9861 32.2237C43.9216 33.2054 44.5606 34.427 44.5606 34.427L37.6898 39.662C40.4299 40.7868 41.3094 42.5453 41.3094 42.5453L39.0802 43.9972L41.8411 42.6271C40.614 40.6026 38.5486 39.7029 38.5486 39.7029L45.1332 34.509C43.5587 31.728 40.6958 29.8594 40.6958 29.8594" fill="url(#paint4_linear_991_841)"/>
<path d="M19.9403 22.5923C17.938 22.0934 15.0312 20.4964 15.0312 20.4964C15.4265 20.5549 16.3915 20.733 17.4124 20.733C18.5145 20.733 19.6813 20.5253 20.2659 19.7355C21.392 18.2137 23.1097 11.4836 23.9798 9.41392C24.7358 7.61519 25.2532 7.56151 25.3123 7.56151C25.3161 7.56151 25.3179 7.56182 25.3179 7.56182C24.6484 8.38338 21.9094 18.3964 21.2093 19.7963C20.5093 21.1962 19.061 21.2267 19.061 21.2267L19.8094 21.7441L18.1051 21.4398L19.9403 22.5923" fill="url(#paint5_linear_991_841)"/>
<path d="M38.4356 22.5923C38.4356 22.5923 36.0124 21.8561 35.1535 20.0157C34.2946 18.1754 31.8408 11.2127 31.8408 11.2127C31.8408 11.2127 31.9269 11.1739 32.0373 11.1739C32.1355 11.1739 32.2532 11.2044 32.347 11.32C32.5463 11.5654 35.6751 19.5249 35.859 19.8777C36.0101 20.1673 37.6391 21.2112 39.8718 21.2112C40.3593 21.2112 40.8749 21.1615 41.411 21.0433C41.411 21.0433 39.3865 22.1628 38.4356 22.5923" fill="url(#paint6_linear_991_841)"/>
<path d="M30.745 11.8691C30.6197 11.8691 30.4897 11.8503 30.3604 11.803C30.3604 11.803 30.736 11.7647 30.9507 11.6113C31.1566 11.4643 31.4261 11.2961 31.5358 11.2961C31.5404 11.2961 31.5449 11.2964 31.549 11.297L31.6409 11.5883C31.6409 11.5883 31.2295 11.8691 30.745 11.8691" fill="url(#paint7_linear_991_841)"/>
<path d="M25.3172 39.5703C22.8825 37.0978 20.4609 30.675 20.4609 30.675C21.6878 32.1166 24.2336 33.6197 24.2336 33.6197C23.3749 33.3437 22.1786 32.7916 22.1786 32.7916L23.3011 34.3559L22.2093 33.5583C23.3372 37.0488 25.3172 39.5703 25.3172 39.5703" fill="url(#paint8_linear_991_841)"/>
<path d="M30.6172 39.4648C30.6172 39.4648 32.7282 36.7288 33.5026 33.9235C33.5026 33.9235 33.4093 33.9162 33.2688 33.9162C33.1096 33.9162 32.8899 33.9255 32.6764 33.9656C32.6764 33.9656 33.0603 33.7727 33.3795 33.4382C33.3795 33.4382 35.0459 31.7088 35.4135 31.1782C35.4135 31.1782 33.4046 36.527 30.6172 39.4648" fill="url(#paint9_linear_991_841)"/>
<path d="M32.7504 32.0244L32.5254 31.2679C32.5254 31.2679 33.4968 30.692 33.8954 29.9694L34.6316 30.5521C34.6316 30.5521 34.0693 31.5746 32.7504 32.0244Z" fill="url(#paint10_linear_991_841)"/>
<path d="M23.0763 31.7573C21.6515 31.1163 20.9746 29.6094 20.9746 29.6094L21.6989 29.2758C22.5183 30.9025 23.4799 31.0924 23.4799 31.0924L23.0763 31.7573Z" fill="url(#paint11_linear_991_841)"/>
<path d="M25.4849 28.6274C25.2396 28.4281 24.6875 27.9258 24.6875 27.9258L25.14 27.2241C25.3768 27.3422 26.014 28.1477 26.014 28.1477L25.4849 28.6274Z" fill="url(#paint12_linear_991_841)"/>
<path d="M32.3523 28.4609L32.042 27.7463C32.6669 27.5818 33.3006 27.4033 33.3006 27.4033L33.2054 28.2643C33.1527 28.2789 32.3523 28.4609 32.3523 28.4609Z" fill="url(#paint13_linear_991_841)"/>
<path d="M16.2394 43.9971L13.4787 42.627C14.7056 40.6025 16.7709 39.7028 16.7709 39.7028L10.1865 34.5089C11.761 31.7279 14.6239 29.8593 14.6239 29.8593C14.6239 29.8593 12.9014 31.628 12.3335 32.2236C11.398 33.2053 10.759 34.4269 10.759 34.4269L17.6298 39.6619C14.8897 40.7867 14.0104 42.5452 14.0104 42.5452L16.2394 43.9971" fill="url(#paint14_linear_991_841)"/>
<path d="M39.0809 43.9971L41.31 42.5452C41.31 42.5452 40.4305 40.7867 37.6904 39.6619L44.5612 34.4269C44.5612 34.4269 43.9222 33.2053 42.9867 32.2236C42.4189 31.628 40.6965 29.8593 40.6965 29.8593C40.6965 29.8593 43.5593 31.7279 45.1339 34.5089L38.5492 39.7028C38.5492 39.7028 40.6146 40.6025 41.8417 42.627L39.0809 43.9971" fill="url(#paint15_linear_991_841)"/>
<defs>
<linearGradient id="paint0_linear_991_841" x1="19.061" y1="28.264" x2="36.4424" y2="28.264" gradientUnits="userSpaceOnUse">
<stop stop-color="#878888"/>
<stop offset="1" stop-color="#1A1817"/>
</linearGradient>
<linearGradient id="paint1_linear_991_841" x1="8.99984" y1="17.373" x2="47.8525" y2="17.373" gradientUnits="userSpaceOnUse">
<stop stop-color="#878888"/>
<stop offset="1" stop-color="#1A1817"/>
</linearGradient>
<linearGradient id="paint2_linear_991_841" x1="19.9404" y1="35.8855" x2="36.1359" y2="35.8855" gradientUnits="userSpaceOnUse">
<stop stop-color="#878888"/>
<stop offset="1" stop-color="#1A1817"/>
</linearGradient>
<linearGradient id="paint3_linear_991_841" x1="9.81738" y1="37.5519" x2="21.8413" y2="37.5519" gradientUnits="userSpaceOnUse">
<stop stop-color="#878888"/>
<stop offset="1" stop-color="#1A1817"/>
</linearGradient>
<linearGradient id="paint4_linear_991_841" x1="46.5931" y1="41.1167" x2="29.7433" y2="35.7182" gradientUnits="userSpaceOnUse">
<stop stop-color="#878888"/>
<stop offset="1" stop-color="#1A1817"/>
</linearGradient>
<linearGradient id="paint5_linear_991_841" x1="9.00005" y1="17.3732" x2="47.8527" y2="17.3732" gradientUnits="userSpaceOnUse">
<stop stop-color="#BCBBB9"/>
<stop offset="1" stop-color="#403F41"/>
</linearGradient>
<linearGradient id="paint6_linear_991_841" x1="8.99956" y1="17.3732" x2="47.8522" y2="17.3732" gradientUnits="userSpaceOnUse">
<stop stop-color="#979898"/>
<stop offset="1" stop-color="#232221"/>
</linearGradient>
<linearGradient id="paint7_linear_991_841" x1="8.99898" y1="17.3732" x2="47.8516" y2="17.3732" gradientUnits="userSpaceOnUse">
<stop stop-color="#979898"/>
<stop offset="1" stop-color="#232221"/>
</linearGradient>
<linearGradient id="paint8_linear_991_841" x1="19.9395" y1="35.8857" x2="36.135" y2="35.8857" gradientUnits="userSpaceOnUse">
<stop stop-color="#BCBBB9"/>
<stop offset="1" stop-color="#403F41"/>
</linearGradient>
<linearGradient id="paint9_linear_991_841" x1="19.9401" y1="35.8854" x2="36.1355" y2="35.8854" gradientUnits="userSpaceOnUse">
<stop stop-color="#979898"/>
<stop offset="1" stop-color="#232221"/>
</linearGradient>
<linearGradient id="paint10_linear_991_841" x1="19.0598" y1="28.2642" x2="36.4412" y2="28.2642" gradientUnits="userSpaceOnUse">
<stop stop-color="#979898"/>
<stop offset="1" stop-color="#232221"/>
</linearGradient>
<linearGradient id="paint11_linear_991_841" x1="19.061" y1="28.2643" x2="36.4425" y2="28.2643" gradientUnits="userSpaceOnUse">
<stop stop-color="#BCBBB9"/>
<stop offset="1" stop-color="#403F41"/>
</linearGradient>
<linearGradient id="paint12_linear_991_841" x1="19.0615" y1="28.2643" x2="36.4429" y2="28.2643" gradientUnits="userSpaceOnUse">
<stop stop-color="#BCBBB9"/>
<stop offset="1" stop-color="#403F41"/>
</linearGradient>
<linearGradient id="paint13_linear_991_841" x1="19.0604" y1="28.2641" x2="36.4419" y2="28.2641" gradientUnits="userSpaceOnUse">
<stop stop-color="#979898"/>
<stop offset="1" stop-color="#232221"/>
</linearGradient>
<linearGradient id="paint14_linear_991_841" x1="9.81837" y1="37.5518" x2="21.8422" y2="37.5518" gradientUnits="userSpaceOnUse">
<stop stop-color="#BCBBB9"/>
<stop offset="1" stop-color="#403F41"/>
</linearGradient>
<linearGradient id="paint15_linear_991_841" x1="46.5937" y1="41.1166" x2="29.744" y2="35.7181" gradientUnits="userSpaceOnUse">
<stop stop-color="#979898"/>
<stop offset="1" stop-color="#232221"/>
</linearGradient>
</defs>
</svg>
